<?xml version="1.0" standalone="no"?>
<!DOCTYPE svg PUBLIC "-//W3C//DTD SVG 20010904//EN"
 "http://www.w3.org/TR/2001/REC-SVG-20010904/DTD/svg10.dtd">
<svg version="1.0" xmlns="http://www.w3.org/2000/svg"
 width="90.000000pt" height="90.000000pt" viewBox="0 0 90.000000 90.000000"
 preserveAspectRatio="xMidYMid meet">

<g transform="translate(0.000000,90.000000) scale(0.100000,-0.100000)"
fill="#ffff" stroke="none">
<path d="M355 797 c-72 -24 -120 -54 -167 -105 -47 -50 -66 -91 -53 -111 13
-22 35 -10 65 35 134 194 426 169 524 -45 29 -64 29 -178 0 -242 -30 -65 -77
-114 -139 -144 -138 -68 -298 -26 -385 99 -30 45 -52 57 -65 35 -25 -39 72
-151 168 -195 53 -25 75 -29 147 -29 72 0 94 4 145 28 78 36 146 104 182 181
24 52 28 74 28 146 0 72 -4 94 -28 146 -57 123 -177 204 -311 211 -41 1 -88
-3 -111 -10z"/>
<path d="M397 593 c-15 -15 -5 -41 29 -74 l35 -34 -183 -5 -183 -5 0 -25 0
-25 184 -3 185 -2 -38 -39 c-40 -41 -45 -73 -12 -79 22 -5 156 123 156 148 0
20 -131 150 -151 150 -9 0 -19 -3 -22 -7z"/>
</g>
</svg>
