<?xml version="1.0" standalone="no"?>
<svg version="1.0" xmlns="http://www.w3.org/2000/svg"
 width="100.000000pt" height="100.000000pt" viewBox="0 0 100.000000 100.000000"
 preserveAspectRatio="xMidYMid meet">

<g transform="translate(0.000000,100.000000) scale(0.100000,-0.100000)"
fill="#ffff" stroke="none">
<path d="M381 945 c-224 -63 -371 -291 -333 -516 7 -39 24 -96 39 -127 35 -75
140 -180 215 -215 167 -79 363 -51 498 70 40 36 50 51 48 72 -5 44 -41 39 -99
-13 -159 -143 -412 -118 -548 54 -54 68 -76 136 -75 235 0 149 77 271 212 337
61 30 74 33 162 33 111 0 171 -22 253 -93 27 -23 54 -42 61 -42 22 0 39 28 32
54 -8 32 -111 109 -184 136 -75 29 -207 36 -281 15z"/>
<path d="M752 668 c-21 -21 -13 -43 29 -83 l40 -40 -192 -5 c-169 -4 -193 -7
-203 -22 -8 -13 -8 -23 0 -35 10 -16 34 -19 203 -23 l192 -5 -40 -40 c-23 -21
-41 -46 -41 -55 0 -20 19 -40 40 -40 20 0 180 160 180 180 0 20 -161 180 -181
180 -8 0 -20 -5 -27 -12z"/>
</g>
</svg>
